<?xml version="1.0" encoding="iso-8859-1"?>
<!-- Generator: Adobe Illustrator 16.0.0, SVG Export Plug-In . SVG Version: 6.00 Build 0)  -->
<!DOCTYPE svg PUBLIC "-//W3C//DTD SVG 1.1//EN" "http://www.w3.org/Graphics/SVG/1.1/DTD/svg11.dtd">
<svg version="1.1" id="Capa_1" xmlns="http://www.w3.org/2000/svg" xmlns:xlink="http://www.w3.org/1999/xlink" x="0px" y="0px"
	 width="21.953px" height="21.954px" viewBox="0 0 21.953 21.954" style="enable-background:new 0 0 21.953 21.954;"
	 xml:space="preserve">
<g>
	<path style="fill:#121111;" d="M7.377,9.191c-1.206-0.51-2.508,0.162-3.754-0.498C2.291,7.99,1.176,9.136,0.325,9.872
		c-0.919,0.792,0.367,1.349,0.748,2.021c0.503,0.89,0.946,0.005,1.4,0.085c0.326,0.058,0.785-0.153,0.932,0.266
		c0.147,0.42-0.174,0.568-0.571,0.699c-1.005,0.329-0.559,0.907-0.214,1.496c0.543,0.931,1.768,0.438,2.545,1.661
		c0.034-0.767-0.002-1.033,0.066-1.266c0.166-0.562-0.446-1.289,0.509-1.704c0.863-0.378,1.373,0.107,1.924,0.512
		c0.412,0.307,0.717,0.688,1.326,0.554c0.8-0.179,1.31,0.093,1.617,0.95c0.249,0.695,0.9,1.182,1.634,0.567
		c1.632-1.363,3.515-1.199,5.353-0.842c0.78,0.151,0.888-0.084,0.963-0.642c0.164-1.19,0.952-1.834,1.982-2.227
		c0.425-0.163,1.593-1.827,1.393-1.839c-0.949-0.058-1.366-1.187-2.329-1.107c-0.993,0.083-1.651-0.28-2.186-1.158
		c-0.481-0.791-1.014-1.813-2.311-0.91C14.887,7.14,14.129,6.88,13.897,6.59c-0.913-1.144-1.938-0.691-2.994-0.38
		c-0.732,0.215-1.467,0.468-2.217,0.561C7.357,6.933,7.507,7.997,7.745,8.662C7.983,9.329,7.688,9.322,7.377,9.191z"/>
</g>
<g>
</g>
<g>
</g>
<g>
</g>
<g>
</g>
<g>
</g>
<g>
</g>
<g>
</g>
<g>
</g>
<g>
</g>
<g>
</g>
<g>
</g>
<g>
</g>
<g>
</g>
<g>
</g>
<g>
</g>
</svg>
